<svg xmlns="http://www.w3.org/2000/svg" xmlns:xlink="http://www.w3.org/1999/xlink" viewBox="0 0 5 5"><path d="M 0.283 4.212 C 0.144 4.351 0.144 4.577 0.283 4.717 C 0.423 4.856 0.649 4.856 0.788 4.717 Z M 5 0.357 C 5 0.16 4.84 0 4.643 0 L 1.429 0 C 1.231 0 1.071 0.16 1.071 0.357 C 1.071 0.554 1.231 0.714 1.429 0.714 L 4.286 0.714 L 4.286 3.571 C 4.286 3.769 4.446 3.929 4.643 3.929 C 4.84 3.929 5 3.769 5 3.571 Z M 0.788 4.717 L 4.895 0.61 L 4.39 0.105 L 0.283 4.212 Z" fill="rgb(217, 217, 217)"></path></svg>